<svg width="56" height="57" viewBox="0 0 56 57" fill="none" xmlns="http://www.w3.org/2000/svg">
<path d="M46.6663 51.834V44.834C46.6663 38.2353 46.6663 34.9337 44.6153 32.885C42.5667 30.834 39.265 30.834 32.6663 30.834L27.9997 35.5007L23.333 30.834C16.7343 30.834 13.4327 30.834 11.384 32.885C9.33301 34.9337 9.33301 38.2353 9.33301 44.834V51.834M37.333 30.834V43.6673" stroke="black" stroke-opacity="0.8" stroke-width="5" stroke-linecap="round" stroke-linejoin="round"/>
<path d="M19.8327 30.8337V40.167M19.8327 40.167C21.0704 40.167 22.2573 40.6587 23.1325 41.5338C24.0077 42.409 24.4993 43.596 24.4993 44.8337V47.167M19.8327 40.167C18.595 40.167 17.408 40.6587 16.5329 41.5338C15.6577 42.409 15.166 43.596 15.166 44.8337V47.167M36.166 15.667V13.3337C36.166 12.2612 35.9548 11.1992 35.5444 10.2084C35.134 9.21758 34.5324 8.3173 33.7741 7.55895C33.0157 6.80061 32.1154 6.19906 31.1246 5.78864C30.1338 5.37823 29.0718 5.16699 27.9993 5.16699C26.9269 5.16699 25.8649 5.37823 24.8741 5.78864C23.8833 6.19906 22.983 6.80061 22.2246 7.55895C21.4663 8.3173 20.8647 9.21758 20.4543 10.2084C20.0439 11.1992 19.8327 12.2612 19.8327 13.3337V15.667C19.8327 16.7395 20.0439 17.8014 20.4543 18.7922C20.8647 19.7831 21.4663 20.6834 22.2246 21.4417C22.983 22.2 23.8833 22.8016 24.8741 23.212C25.8649 23.6224 26.9269 23.8337 27.9993 23.8337C29.0718 23.8337 30.1338 23.6224 31.1246 23.212C32.1154 22.8016 33.0157 22.2 33.7741 21.4417C34.5324 20.6834 35.134 19.7831 35.5444 18.7922C35.9548 17.8014 36.166 16.7395 36.166 15.667ZM39.0827 45.417C39.0827 45.8811 38.8983 46.3262 38.5701 46.6544C38.2419 46.9826 37.7968 47.167 37.3327 47.167C36.8686 47.167 36.4234 46.9826 36.0952 46.6544C35.7671 46.3262 35.5827 45.8811 35.5827 45.417C35.5827 44.9529 35.7671 44.5077 36.0952 44.1796C36.4234 43.8514 36.8686 43.667 37.3327 43.667C37.7968 43.667 38.2419 43.8514 38.5701 44.1796C38.8983 44.5077 39.0827 44.9529 39.0827 45.417Z" stroke="black" stroke-opacity="0.8" stroke-width="5" stroke-linecap="round" stroke-linejoin="round"/>
</svg>
