<svg width="48" height="48" viewBox="0 0 48 48" fill="none" xmlns="http://www.w3.org/2000/svg">
<rect width="48" height="48" rx="10" fill="black" fill-opacity="0.1"/>
<path d="M18.913 22.9231C17.414 22.9231 15.9763 22.3558 14.9164 21.346C13.8564 20.3361 13.2609 18.9666 13.2609 17.5385V13.2308C13.2609 12.9452 13.38 12.6712 13.592 12.4693C13.804 12.2673 14.0915 12.1538 14.3913 12.1538H15.5217C15.8215 12.1538 16.1091 12.0404 16.3211 11.8384C16.5331 11.6365 16.6522 11.3625 16.6522 11.0769C16.6522 10.7913 16.5331 10.5174 16.3211 10.3154C16.1091 10.1135 15.8215 10 15.5217 10H14.3913C13.4919 10 12.6293 10.3404 11.9933 10.9463C11.3573 11.5522 11 12.3739 11 13.2308V17.5385C11.0015 18.7551 11.3129 19.9532 11.9075 21.0299C12.5022 22.1066 13.3622 23.0298 14.4139 23.72C15.4253 24.5678 16.2455 25.6026 16.8245 26.7614C17.4036 27.9203 17.7295 29.1791 17.7826 30.4615C17.7826 32.4609 18.6163 34.3783 20.1003 35.792C21.5843 37.2058 23.597 38 25.6956 38C27.7943 38 29.807 37.2058 31.291 35.792C32.775 34.3783 33.6087 32.4609 33.6087 30.4615V29.2338C34.6743 28.9717 35.603 28.3484 36.2207 27.4806C36.8384 26.6128 37.1026 25.5603 36.9639 24.5202C36.8253 23.48 36.2932 22.5238 35.4674 21.8307C34.6416 21.1376 33.5788 20.7552 32.4783 20.7552C31.3777 20.7552 30.3149 21.1376 29.4891 21.8307C28.6633 22.5238 28.1312 23.48 27.9926 24.5202C27.8539 25.5603 28.1182 26.6128 28.7358 27.4806C29.3535 28.3484 30.2822 28.9717 31.3478 29.2338V30.4615C31.3478 31.8896 30.7523 33.2592 29.6923 34.269C28.6323 35.2788 27.1947 35.8462 25.6956 35.8462C24.1966 35.8462 22.7589 35.2788 21.699 34.269C20.639 33.2592 20.0435 31.8896 20.0435 30.4615C20.0994 29.1775 20.4289 27.9177 21.0119 26.7587C21.5949 25.5998 22.4192 24.5659 23.4348 23.72C24.4823 23.0274 25.338 22.1032 25.9286 21.0266C26.5192 19.9501 26.8272 18.7532 26.8261 17.5385V13.2308C26.8261 12.3739 26.4688 11.5522 25.8328 10.9463C25.1968 10.3404 24.3342 10 23.4348 10H22.3043C22.0045 10 21.717 10.1135 21.505 10.3154C21.293 10.5174 21.1739 10.7913 21.1739 11.0769C21.1739 11.3625 21.293 11.6365 21.505 11.8384C21.717 12.0404 22.0045 12.1538 22.3043 12.1538H23.4348C23.7346 12.1538 24.0221 12.2673 24.2341 12.4693C24.4461 12.6712 24.5652 12.9452 24.5652 13.2308V17.5385C24.5652 18.2456 24.419 18.9458 24.135 19.5991C23.8509 20.2524 23.4346 20.846 22.9097 21.346C22.3849 21.846 21.7618 22.2426 21.076 22.5132C20.3903 22.7838 19.6553 22.9231 18.913 22.9231ZM32.4783 27.2308C31.8786 27.2308 31.3036 27.0038 30.8796 26.5999C30.4556 26.196 30.2174 25.6482 30.2174 25.0769C30.2174 24.5057 30.4556 23.9578 30.8796 23.5539C31.3036 23.15 31.8786 22.9231 32.4783 22.9231C33.0779 22.9231 33.6529 23.15 34.0769 23.5539C34.5009 23.9578 34.7391 24.5057 34.7391 25.0769C34.7391 25.6482 34.5009 26.196 34.0769 26.5999C33.6529 27.0038 33.0779 27.2308 32.4783 27.2308Z" fill="black" fill-opacity="0.6"/>
</svg>
